<svg width="2000" height="1172" viewBox="0 0 2000 1172" fill="none" xmlns="http://www.w3.org/2000/svg">
<path d="M784.777 1061.1C952.493 1061.1 1088.45 1043.74 1088.45 1022.33C1088.45 1000.92 952.493 983.558 784.777 983.558C617.061 983.558 481.1 1000.92 481.1 1022.33C481.1 1043.74 617.061 1061.1 784.777 1061.1Z" fill="#3F3D56"/>
<path d="M795.495 974.551C873.434 974.551 936.616 915.257 936.616 842.113C936.616 768.97 873.434 709.676 795.495 709.676C717.556 709.676 654.374 768.97 654.374 842.113C654.374 915.257 717.556 974.551 795.495 974.551Z" fill="#2F2E41"/>
<path d="M774.059 946.052H731.187V1018.14H774.059V946.052Z" fill="#2F2E41"/>
<path d="M859.803 946.052H816.931V1018.14H859.803V946.052Z" fill="#2F2E41"/>
<path d="M766.914 1031.55C786.645 1031.55 802.64 1025.92 802.64 1018.98C802.64 1012.03 786.645 1006.4 766.914 1006.4C747.182 1006.4 731.187 1012.03 731.187 1018.98C731.187 1025.92 747.182 1031.55 766.914 1031.55Z" fill="#2F2E41"/>
<path d="M852.658 1029.87C872.389 1029.87 888.385 1024.24 888.385 1017.3C888.385 1010.36 872.389 1004.73 852.658 1004.73C832.926 1004.73 816.931 1010.36 816.931 1017.3C816.931 1024.24 832.926 1029.87 852.658 1029.87Z" fill="#2F2E41"/>
<path d="M799.068 853.849C825.705 853.849 847.299 833.583 847.299 808.585C847.299 783.587 825.705 763.322 799.068 763.322C772.43 763.322 750.836 783.587 750.836 808.585C750.836 833.583 772.43 853.849 799.068 853.849Z" fill="white"/>
<path d="M799.068 823.673C807.947 823.673 815.145 816.918 815.145 808.585C815.145 800.252 807.947 793.497 799.068 793.497C790.189 793.497 782.991 800.252 782.991 808.585C782.991 816.918 790.189 823.673 799.068 823.673Z" fill="#3F3D56"/>
<path d="M658.604 718.95C647.209 671.059 683.633 622.667 739.96 610.863C796.288 599.06 851.187 628.315 862.582 676.206C873.977 724.098 836.647 741.761 780.32 753.564C723.993 765.368 669.998 766.842 658.604 718.95Z" fill="#3B86FF"/>
<path d="M927.853 815.699C963.678 801.309 988.819 781.087 984.005 770.532C979.191 759.977 946.246 763.086 910.421 777.477C874.595 791.867 849.454 812.089 854.268 822.643C859.082 833.198 892.027 830.089 927.853 815.699Z" fill="#2F2E41"/>
<path d="M663.475 904.55C699.301 890.159 724.441 869.937 719.627 859.383C714.814 848.828 681.869 851.937 646.043 866.327C610.217 880.717 585.077 900.939 589.89 911.494C594.704 922.049 627.649 918.94 663.475 904.55Z" fill="#2F2E41"/>
<path d="M877.667 880.671C877.667 893.633 842.103 919.229 802.64 919.229C763.178 919.229 725.828 895.31 725.828 882.348C725.828 869.386 763.178 872.289 802.64 872.289C842.103 872.289 877.667 867.709 877.667 880.671Z" fill="white"/>
<path d="M1382.16 771.959C1566.64 771.959 1716.2 752.865 1716.2 729.311C1716.2 705.757 1566.64 686.663 1382.16 686.663C1197.67 686.663 1048.11 705.757 1048.11 729.311C1048.11 752.865 1197.67 771.959 1382.16 771.959Z" fill="#3F3D56"/>
<path d="M1592.94 284.22H1221.38V689.915H1592.94V284.22Z" fill="#2F2E41"/>
<path d="M1630.46 243.986H1183.87V388.159H1630.46V243.986Z" fill="#3F3D56"/>
<path d="M1630.46 414.982H1183.87V559.154H1630.46V414.982Z" fill="#3F3D56"/>
<path d="M1630.46 585.977H1183.87V730.15H1630.46V585.977Z" fill="#3F3D56"/>
<path opacity="0.4" d="M1541.14 269.133H1512.56V295.955H1541.14V269.133Z" fill="#3B86FF"/>
<path opacity="0.8" d="M1582.23 269.133H1553.64V295.955H1582.23V269.133Z" fill="#3B86FF"/>
<path d="M1623.31 269.133H1594.73V295.955H1623.31V269.133Z" fill="#3B86FF"/>
<path opacity="0.4" d="M1541.14 438.452H1512.56V465.274H1541.14V438.452Z" fill="#3B86FF"/>
<path opacity="0.8" d="M1582.23 438.452H1553.64V465.274H1582.23V438.452Z" fill="#3B86FF"/>
<path d="M1623.31 438.452H1594.73V465.274H1623.31V438.452Z" fill="#3B86FF"/>
<path opacity="0.4" d="M1541.14 607.771H1512.56V634.593H1541.14V607.771Z" fill="#3B86FF"/>
<path opacity="0.8" d="M1582.23 607.771H1553.64V634.593H1582.23V607.771Z" fill="#3B86FF"/>
<path d="M1623.31 607.771H1594.73V634.593H1623.31V607.771Z" fill="#3B86FF"/>
<path d="M34.668 289.195L55.1758 108.531H254.395V167.369H113.037L104.248 243.785C121.012 234.833 138.835 230.357 157.715 230.357C191.569 230.357 218.099 240.855 237.305 261.852C256.51 282.848 266.113 312.226 266.113 349.986C266.113 372.936 261.23 393.525 251.465 411.754C241.862 429.82 228.027 443.899 209.961 453.99C191.895 463.919 170.573 468.883 145.996 468.883C124.512 468.883 104.574 464.57 86.1816 455.943C67.7897 447.154 53.2227 434.866 42.4805 419.078C31.901 403.29 26.2858 385.305 25.6348 365.123H95.459C96.9238 379.934 102.051 391.49 110.84 399.791C119.792 407.929 131.429 411.998 145.752 411.998C161.702 411.998 173.991 406.301 182.617 394.908C191.243 383.352 195.557 367.076 195.557 346.08C195.557 325.898 190.592 310.436 180.664 299.693C170.736 288.951 156.657 283.58 138.428 283.58C121.663 283.58 108.073 287.975 97.6562 296.764L90.8203 303.111L34.668 289.195ZM550.537 317.027C550.537 366.181 540.365 403.779 520.02 429.82C499.674 455.862 469.889 468.883 430.664 468.883C391.927 468.883 362.305 456.106 341.797 430.553C321.289 404.999 310.791 368.378 310.303 320.689V255.26C310.303 205.618 320.557 167.939 341.064 142.223C361.735 116.507 391.439 103.648 430.176 103.648C468.913 103.648 498.535 116.425 519.043 141.979C539.551 167.369 550.049 203.909 550.537 251.598V317.027ZM479.98 245.25C479.98 215.79 475.911 194.387 467.773 181.041C459.798 167.532 447.266 160.777 430.176 160.777C413.574 160.777 401.286 167.206 393.311 180.064C385.498 192.76 381.348 212.698 380.859 239.879V326.305C380.859 355.276 384.766 376.842 392.578 391.002C400.553 404.999 413.249 411.998 430.664 411.998C447.917 411.998 460.368 405.243 468.018 391.734C475.667 378.225 479.655 357.555 479.98 329.723V245.25ZM670.166 255.016H707.764C725.667 255.016 738.932 250.54 747.559 241.588C756.185 232.636 760.498 220.755 760.498 205.943C760.498 191.62 756.185 180.471 747.559 172.496C739.095 164.521 727.376 160.533 712.402 160.533C698.893 160.533 687.581 164.277 678.467 171.764C669.352 179.088 664.795 188.691 664.795 200.572H594.238C594.238 182.018 599.202 165.416 609.131 150.768C619.222 135.956 633.219 124.4 651.123 116.1C669.189 107.799 689.046 103.648 710.693 103.648C748.291 103.648 777.751 112.682 799.072 130.748C820.394 148.652 831.055 173.391 831.055 204.967C831.055 221.243 826.09 236.217 816.162 249.889C806.234 263.561 793.213 274.059 777.1 281.383C797.119 288.544 812.012 299.286 821.777 313.609C831.706 327.932 836.67 344.859 836.67 364.391C836.67 395.966 825.114 421.275 802.002 440.318C779.053 459.361 748.617 468.883 710.693 468.883C675.212 468.883 646.159 459.524 623.535 440.807C601.074 422.089 589.844 397.35 589.844 366.588H660.4C660.4 379.934 665.365 390.839 675.293 399.303C685.384 407.766 697.754 411.998 712.402 411.998C729.167 411.998 742.269 407.604 751.709 398.814C761.312 389.863 766.113 378.062 766.113 363.414C766.113 327.932 746.582 310.191 707.52 310.191H670.166V255.016Z" fill="#3B86FF"/>
<path d="M1604.64 178.133L1736.42 258.889C1737.7 259.662 1739.18 260.053 1740.72 260.024C1742.26 259.995 1743.8 259.547 1745.2 258.724C1746.6 257.9 1747.81 256.73 1748.7 255.325C1749.6 253.921 1750.16 252.331 1750.32 250.709L1768.13 73.8261C1768.3 72.1305 1768.03 70.4626 1767.35 68.9995C1766.68 67.5365 1765.62 66.3329 1764.29 65.5166C1762.95 64.7003 1761.4 64.3017 1759.79 64.3633C1758.18 64.4249 1756.57 64.9443 1755.14 65.8663L1605.58 162.013C1604.21 162.896 1603.04 164.119 1602.2 165.56C1601.36 167.001 1600.86 168.613 1600.77 170.237C1600.67 171.861 1600.98 173.442 1601.66 174.826C1602.34 176.21 1603.36 177.349 1604.64 178.133V178.133ZM1694.2 198.702L1677.43 188.425L1688.89 169.724L1705.66 180.001L1694.2 198.702ZM1713.31 167.527L1696.54 157.251L1719.46 119.839L1736.23 130.115L1713.31 167.527Z" fill="#3B86FF"/>
<path opacity="0.1" d="M1604.64 178.133L1736.42 258.889C1737.7 259.662 1739.18 260.053 1740.72 260.024C1742.26 259.995 1743.8 259.547 1745.2 258.724C1746.6 257.9 1747.81 256.73 1748.7 255.325C1749.6 253.921 1750.16 252.331 1750.32 250.709L1768.13 73.8261C1768.3 72.1305 1768.03 70.4626 1767.35 68.9995C1766.68 67.5365 1765.62 66.3329 1764.29 65.5166C1762.95 64.7003 1761.4 64.3017 1759.79 64.3633C1758.18 64.4249 1756.57 64.9443 1755.14 65.8663L1605.58 162.013C1604.21 162.896 1603.04 164.119 1602.2 165.56C1601.36 167.001 1600.86 168.613 1600.77 170.237C1600.67 171.861 1600.98 173.442 1601.66 174.826C1602.34 176.21 1603.36 177.349 1604.64 178.133V178.133ZM1694.2 198.702L1677.43 188.425L1688.89 169.724L1705.66 180.001L1694.2 198.702ZM1713.31 167.527L1696.54 157.251L1719.46 119.839L1736.23 130.115L1713.31 167.527Z" fill="#3B86FF"/>
<path d="M1601.88 182.639L1733.66 263.396C1734.94 264.169 1736.42 264.56 1737.96 264.531C1739.5 264.502 1741.04 264.054 1742.44 263.23C1743.84 262.407 1745.05 261.236 1745.94 259.832C1746.84 258.427 1747.4 256.837 1747.56 255.216L1765.37 78.3325C1765.54 76.6369 1765.27 74.9691 1764.59 73.506C1763.92 72.0429 1762.86 70.8394 1761.52 70.0231C1760.19 69.2068 1758.64 68.8082 1757.03 68.8698C1755.42 68.9314 1753.81 69.4507 1752.38 70.3727L1602.82 166.519C1601.45 167.403 1600.28 168.625 1599.44 170.066C1598.6 171.508 1598.1 173.119 1598.01 174.743C1597.91 176.367 1598.22 177.948 1598.9 179.332C1599.57 180.716 1600.6 181.855 1601.88 182.639V182.639ZM1691.44 203.208L1674.67 192.932L1686.13 174.231L1702.9 184.507L1691.44 203.208ZM1710.55 172.033L1693.78 161.757L1716.7 124.345L1733.47 134.622L1710.55 172.033Z" fill="#3B86FF"/>
<path d="M921.89 698.477L951.517 681.879L1029.77 821.551L1000.14 838.149L921.89 698.477Z" fill="#3B86FF"/>
<path d="M1007.84 817.152C1013.7 813.87 1020.4 812.398 1027.09 812.924C1033.79 813.45 1040.18 815.95 1045.46 820.107C1050.73 824.265 1054.66 829.893 1056.73 836.281C1058.81 842.668 1058.94 849.528 1057.12 855.993C1055.3 862.458 1051.6 868.237 1046.49 872.6C1041.39 876.963 1035.1 879.713 1028.43 880.504C1021.76 881.294 1015.01 880.089 1009.02 877.041C1003.04 873.992 998.091 869.238 994.808 863.378C990.406 855.52 989.306 846.236 991.749 837.567C994.193 828.898 999.98 821.555 1007.84 817.152V817.152ZM1031.55 859.477C1034.06 858.07 1036.1 855.95 1037.4 853.385C1038.71 850.82 1039.23 847.926 1038.89 845.067C1038.55 842.209 1037.37 839.515 1035.5 837.326C1033.63 835.137 1031.15 833.552 1028.38 832.772C1025.61 831.991 1022.67 832.049 1019.94 832.939C1017.2 833.828 1014.79 835.51 1013 837.771C1011.22 840.032 1010.15 842.771 1009.93 845.64C1009.7 848.51 1010.33 851.382 1011.74 853.893C1013.62 857.261 1016.77 859.741 1020.49 860.788C1024.2 861.835 1028.18 861.364 1031.55 859.477Z" fill="#3B86FF"/>
<path d="M886.887 653.002L898.375 672.767L927.277 672.399L941.401 646.607L930.727 628.242C939.247 629.466 947.171 633.325 953.387 639.279C959.604 645.233 963.801 652.982 965.39 661.442C966.98 669.901 965.882 678.646 962.252 686.451C958.621 694.255 952.638 700.727 945.144 704.96C937.649 709.193 929.017 710.974 920.459 710.054C911.901 709.134 903.845 705.559 897.421 699.83C890.997 694.1 886.527 686.504 884.638 678.107C882.749 669.709 883.536 660.931 886.887 653.002V653.002Z" fill="#3B86FF"/>
</svg>
