<svg xmlns="http://www.w3.org/2000/svg" width="2000" height="697" fill="none" viewBox="0 0 2000 697"><g clip-path="url(#clip0)"><path fill="#2F2E41" d="M1694.69 449.293C1699.93 438.24 1675.64 415.743 1640.43 399.044C1605.23 382.346 1572.44 377.769 1567.19 388.822C1561.95 399.875 1586.24 422.372 1621.45 439.07C1656.66 455.769 1689.45 460.346 1694.69 449.293Z"/><path fill="#2F2E41" d="M1985.27 563.135C1994.65 555.281 1981.97 524.695 1956.96 494.817C1931.94 464.94 1904.06 447.085 1894.68 454.939C1885.3 462.792 1897.97 493.378 1922.99 523.256C1948 553.133 1975.89 570.988 1985.27 563.135Z"/><path fill="#2F2E41" d="M1789.88 625.647C1867.82 625.647 1930.99 562.469 1930.99 484.535C1930.99 406.6 1867.82 343.422 1789.88 343.422C1711.95 343.422 1648.77 406.6 1648.77 484.535C1648.77 562.469 1711.95 625.647 1789.88 625.647Z"/><path fill="#2F2E41" d="M1849.61 595.281H1806.74V672.089H1849.61V595.281Z"/><path fill="#2F2E41" d="M1763.87 595.281H1721V672.089H1763.87V595.281Z"/><path fill="#2F2E41" d="M1813.89 686.379C1833.62 686.379 1849.61 680.381 1849.61 672.982C1849.61 665.583 1833.62 659.585 1813.89 659.585C1794.15 659.585 1778.16 665.583 1778.16 672.982C1778.16 680.381 1794.15 686.379 1813.89 686.379Z"/><path fill="#2F2E41" d="M1728.15 684.593C1747.88 684.593 1763.87 678.595 1763.87 671.196C1763.87 663.797 1747.88 657.799 1728.15 657.799C1708.42 657.799 1692.42 663.797 1692.42 671.196C1692.42 678.595 1708.42 684.593 1728.15 684.593Z"/><path fill="#3B86FF" d="M1745.57 307.152C1758.17 256.408 1813.79 226.546 1869.8 240.454C1925.81 254.362 1961 306.772 1948.4 357.516C1935.8 408.261 1894 408.424 1837.99 394.516C1781.98 380.609 1732.97 357.896 1745.57 307.152Z"/><path fill="#fff" d="M1768.79 501.806C1794.77 501.806 1815.83 480.742 1815.83 454.759C1815.83 428.776 1794.77 407.712 1768.79 407.712C1742.8 407.712 1721.74 428.776 1721.74 454.759C1721.74 480.742 1742.8 501.806 1768.79 501.806Z"/><path fill="#3F3D56" d="M1749.45 453.577C1758.11 453.577 1765.13 446.556 1765.13 437.895C1765.13 429.234 1758.11 422.213 1749.45 422.213C1740.79 422.213 1733.77 429.234 1733.77 437.895C1733.77 446.556 1740.79 453.577 1749.45 453.577Z"/><path fill="#fff" d="M1798.3 552.778C1799.78 560.959 1797.96 569.394 1793.22 576.229C1788.49 583.064 1781.23 587.74 1773.05 589.229C1764.88 590.718 1756.44 588.898 1749.6 584.17C1742.76 579.442 1738.08 572.192 1736.58 564.013V564.013L1736.57 563.953C1733.49 546.907 1746.67 540.875 1763.71 537.79C1780.76 534.704 1795.21 535.733 1798.3 552.778Z"/><path fill="#2F2E41" d="M380.799 445.227C416.007 428.529 440.299 406.032 435.057 394.979C429.815 383.926 397.023 388.503 361.815 405.201C326.608 421.9 302.315 444.397 307.558 455.45C312.8 466.503 345.591 461.926 380.799 445.227Z"/><path fill="#2F2E41" d="M79.2607 529.413C104.276 499.535 116.952 468.948 107.572 461.095C98.1928 453.242 70.3101 471.097 45.2946 500.974C20.2791 530.852 7.6036 561.438 16.9831 569.292C26.3625 577.145 54.2451 559.29 79.2607 529.413Z"/><path fill="#2F2E41" d="M212.368 631.804C290.302 631.804 353.48 568.626 353.48 490.691C353.48 412.757 290.302 349.579 212.368 349.579C134.433 349.579 71.2551 412.757 71.2551 490.691C71.2551 568.626 134.433 631.804 212.368 631.804Z"/><path fill="#2F2E41" d="M195.509 601.438H152.64V678.246H195.509V601.438Z"/><path fill="#2F2E41" d="M281.249 601.438H238.379V678.246H281.249V601.438Z"/><path fill="#2F2E41" d="M188.364 692.536C208.095 692.536 224.089 686.538 224.089 679.139C224.089 671.74 208.095 665.742 188.364 665.742C168.634 665.742 152.64 671.74 152.64 679.139C152.64 686.538 168.634 692.536 188.364 692.536Z"/><path fill="#2F2E41" d="M274.104 690.75C293.834 690.75 309.828 684.752 309.828 677.353C309.828 669.954 293.834 663.956 274.104 663.956C254.373 663.956 238.379 669.954 238.379 677.353C238.379 684.752 254.373 690.75 274.104 690.75Z"/><path fill="#3B86FF" d="M256.676 313.309C244.076 262.565 188.456 232.703 132.446 246.611C76.4362 260.518 41.2457 312.929 53.8459 363.673C66.4462 414.417 108.25 414.581 164.26 400.673C220.27 386.765 269.276 364.053 256.676 313.309Z"/><path fill="#fff" d="M233.464 507.963C259.447 507.963 280.511 486.899 280.511 460.916C280.511 434.932 259.447 413.869 233.464 413.869C207.481 413.869 186.417 434.932 186.417 460.916C186.417 486.899 207.481 507.963 233.464 507.963Z"/><path fill="#3F3D56" d="M252.8 459.734C261.461 459.734 268.482 452.713 268.482 444.052C268.482 435.391 261.461 428.37 252.8 428.37C244.139 428.37 237.118 435.391 237.118 444.052C237.118 452.713 244.139 459.734 252.8 459.734Z"/><path fill="#fff" d="M203.951 558.935C202.468 567.116 204.294 575.551 209.028 582.386C213.762 589.221 221.016 593.896 229.195 595.385C237.375 596.875 245.811 595.055 252.65 590.327C259.489 585.599 264.17 578.348 265.666 570.17V570.17L265.677 570.109C268.763 553.064 255.584 547.032 238.538 543.947C221.493 540.861 207.036 541.89 203.951 558.935Z"/><path fill="#3F3D56" d="M1996.33 696.132H3.66545C2.69514 696.129 1.76551 695.741 1.0804 695.054C0.39528 694.367 0.0106201 693.436 0.0106201 692.466C0.0106201 691.496 0.39528 690.565 1.0804 689.878C1.76551 689.191 2.69514 688.804 3.66545 688.801H1996.33C1997.31 688.801 1998.24 689.187 1998.93 689.874C1999.61 690.562 2000 691.494 2000 692.466C2000 693.438 1999.61 694.371 1998.93 695.058C1998.24 695.746 1997.31 696.132 1996.33 696.132V696.132Z"/><path fill="#3B86FF" d="M586.17 252.538C602.475 241.714 606.201 220.554 594.493 205.276C582.785 189.999 560.076 186.389 543.771 197.214C527.467 208.039 523.74 229.199 535.448 244.476C547.156 259.753 569.865 263.363 586.17 252.538Z"/><path fill="#3B86FF" d="M542.765 159.511L505.799 184.053L405.093 96.5811C400.426 91.6205 396.919 85.8094 394.799 79.5223C392.678 73.2352 391.99 66.6117 392.78 60.0787C393.57 53.5457 395.82 47.2483 399.385 41.5923C402.949 35.9364 407.75 31.0474 413.476 27.2406C419.203 23.4338 425.729 20.7937 432.634 19.4903C439.538 18.187 446.668 18.2494 453.563 19.6736C460.459 21.0978 466.967 23.8521 472.668 27.759C478.37 31.6658 483.138 36.6386 486.665 42.3567L542.765 159.511Z"/><path fill="#3B86FF" d="M819.91 462.211H860.193V519.096H819.91V596H749.354V519.096H603.602L600.428 474.662L748.621 240.531H819.91V462.211ZM670.74 462.211H749.354V336.723L744.715 344.779L670.74 462.211ZM1137.54 449.027C1137.54 498.181 1127.36 535.779 1107.02 561.82C1086.67 587.862 1056.89 600.883 1017.66 600.883C978.927 600.883 949.305 588.106 928.797 562.553C908.289 536.999 897.791 500.378 897.303 452.689V387.26C897.303 337.618 907.557 299.939 928.064 274.223C948.735 248.507 978.439 235.648 1017.18 235.648C1055.91 235.648 1085.54 248.425 1106.04 273.979C1126.55 299.369 1137.05 335.909 1137.54 383.598V449.027ZM1066.98 377.25C1066.98 347.79 1062.91 326.387 1054.77 313.041C1046.8 299.532 1034.27 292.777 1017.18 292.777C1000.57 292.777 988.286 299.206 980.311 312.064C972.498 324.76 968.348 344.698 967.859 371.879V458.305C967.859 487.276 971.766 508.842 979.578 523.002C987.553 536.999 1000.25 543.998 1017.66 543.998C1034.92 543.998 1047.37 537.243 1055.02 523.734C1062.67 510.225 1066.65 489.555 1066.98 461.723V377.25ZM1257.17 387.016H1294.76C1312.67 387.016 1325.93 382.54 1334.56 373.588C1343.18 364.636 1347.5 352.755 1347.5 337.943C1347.5 323.62 1343.18 312.471 1334.56 304.496C1326.1 296.521 1314.38 292.533 1299.4 292.533C1285.89 292.533 1274.58 296.277 1265.47 303.764C1256.35 311.088 1251.79 320.691 1251.79 332.572H1181.24C1181.24 314.018 1186.2 297.416 1196.13 282.768C1206.22 267.956 1220.22 256.4 1238.12 248.1C1256.19 239.799 1276.05 235.648 1297.69 235.648C1335.29 235.648 1364.75 244.682 1386.07 262.748C1407.39 280.652 1418.05 305.391 1418.05 336.967C1418.05 353.243 1413.09 368.217 1403.16 381.889C1393.23 395.561 1380.21 406.059 1364.1 413.383C1384.12 420.544 1399.01 431.286 1408.78 445.609C1418.71 459.932 1423.67 476.859 1423.67 496.391C1423.67 527.966 1412.11 553.275 1389 572.318C1366.05 591.361 1335.62 600.883 1297.69 600.883C1262.21 600.883 1233.16 591.524 1210.54 572.807C1188.07 554.089 1176.84 529.35 1176.84 498.588H1247.4C1247.4 511.934 1252.36 522.839 1262.29 531.303C1272.38 539.766 1284.75 543.998 1299.4 543.998C1316.17 543.998 1329.27 539.604 1338.71 530.814C1348.31 521.863 1353.11 510.062 1353.11 495.414C1353.11 459.932 1333.58 442.191 1294.52 442.191H1257.17V387.016Z"/><path fill="#3B86FF" d="M1439.99 162.87L1562.8 226.803C1563.99 227.414 1565.34 227.671 1566.71 227.549C1568.09 227.427 1569.44 226.93 1570.64 226.107C1571.84 225.284 1572.84 224.162 1573.56 222.851C1574.27 221.54 1574.67 220.084 1574.71 218.624L1579.57 59.4402C1579.62 57.9143 1579.28 56.4405 1578.58 55.1753C1577.88 53.9101 1576.86 52.9008 1575.62 52.2545C1574.38 51.6083 1572.96 51.3492 1571.53 51.5049C1570.09 51.6606 1568.69 52.2251 1567.47 53.1387L1439.83 148.405C1438.65 149.281 1437.69 150.446 1437.02 151.787C1436.36 153.128 1436.02 154.599 1436.04 156.056C1436.05 157.513 1436.42 158.907 1437.12 160.101C1437.81 161.295 1438.8 162.25 1439.99 162.87V162.87ZM1521.31 175.655L1505.68 167.519L1514.76 150.091L1530.39 158.226L1521.31 175.655ZM1536.44 146.602L1520.81 138.466L1538.96 103.6L1554.59 111.736L1536.44 146.602Z"/><path fill="#3B86FF" d="M1439.99 162.87L1562.8 226.803C1563.99 227.414 1565.34 227.671 1566.71 227.549C1568.09 227.427 1569.44 226.93 1570.64 226.107C1571.84 225.284 1572.84 224.162 1573.56 222.851C1574.27 221.54 1574.67 220.084 1574.71 218.624L1579.57 59.4402C1579.62 57.9143 1579.28 56.4405 1578.58 55.1753C1577.88 53.9101 1576.86 52.9008 1575.62 52.2545C1574.38 51.6083 1572.96 51.3492 1571.53 51.5049C1570.09 51.6606 1568.69 52.2251 1567.47 53.1387L1439.83 148.405C1438.65 149.281 1437.69 150.446 1437.02 151.787C1436.36 153.128 1436.02 154.599 1436.04 156.056C1436.05 157.513 1436.42 158.907 1437.12 160.101C1437.81 161.295 1438.8 162.25 1439.99 162.87V162.87ZM1521.31 175.655L1505.68 167.519L1514.76 150.091L1530.39 158.226L1521.31 175.655ZM1536.44 146.602L1520.81 138.466L1538.96 103.6L1554.59 111.736L1536.44 146.602Z" opacity=".1"/><path fill="#3B86FF" d="M1437.8 167.07L1560.62 231.003C1561.81 231.614 1563.15 231.871 1564.53 231.749C1565.9 231.627 1567.25 231.13 1568.45 230.307C1569.65 229.483 1570.66 228.362 1571.37 227.05C1572.08 225.739 1572.48 224.283 1572.53 222.824L1577.39 63.6399C1577.43 62.114 1577.09 60.6402 1576.39 59.375C1575.7 58.1098 1574.67 57.1005 1573.43 56.4542C1572.19 55.808 1570.78 55.5489 1569.34 55.7046C1567.91 55.8603 1566.5 56.4248 1565.28 57.3384L1437.64 152.605C1436.47 153.481 1435.5 154.646 1434.84 155.987C1434.17 157.328 1433.83 158.798 1433.85 160.256C1433.87 161.713 1434.24 163.106 1434.93 164.301C1435.62 165.495 1436.61 166.449 1437.8 167.07V167.07ZM1519.13 179.855L1503.5 171.719L1512.57 154.291L1528.2 162.426L1519.13 179.855ZM1534.25 150.801L1518.62 142.666L1536.77 107.8L1552.4 115.936L1534.25 150.801Z"/></g><defs><clipPath id="clip0"><rect width="2000" height="696.132" fill="#fff"/></clipPath></defs></svg>