<svg width="2000" height="1394" viewBox="0 0 2000 1394" fill="none" xmlns="http://www.w3.org/2000/svg">
<g clip-path="url(#clip0)">
<path d="M1050.59 309.562H1089.27V364.172H1050.59V438H982.859V364.172H842.938L839.891 321.516L982.156 96.75H1050.59V309.562ZM907.391 309.562H982.859V189.094L978.406 196.828L907.391 309.562ZM1355.52 296.906C1355.52 344.094 1345.75 380.188 1326.22 405.188C1306.69 430.188 1278.09 442.688 1240.44 442.688C1203.25 442.688 1174.81 430.422 1155.12 405.891C1135.44 381.359 1125.36 346.203 1124.89 300.422V237.609C1124.89 189.953 1134.73 153.781 1154.42 129.094C1174.27 104.406 1202.78 92.0625 1239.97 92.0625C1277.16 92.0625 1305.59 104.328 1325.28 128.859C1344.97 153.234 1355.05 188.312 1355.52 234.094V296.906ZM1287.78 228C1287.78 199.719 1283.88 179.172 1276.06 166.359C1268.41 153.391 1256.38 146.906 1239.97 146.906C1224.03 146.906 1212.23 153.078 1204.58 165.422C1197.08 177.609 1193.09 196.75 1192.62 222.844V305.812C1192.62 333.625 1196.38 354.328 1203.88 367.922C1211.53 381.359 1223.72 388.078 1240.44 388.078C1257 388.078 1268.95 381.594 1276.3 368.625C1283.64 355.656 1287.47 335.812 1287.78 309.094V228ZM1601.84 309.562H1640.52V364.172H1601.84V438H1534.11V364.172H1394.19L1391.14 321.516L1533.41 96.75H1601.84V309.562ZM1458.64 309.562H1534.11V189.094L1529.66 196.828L1458.64 309.562Z" fill="#3B86FF"/>
<path d="M379.428 299.107C442.513 299.107 493.654 247.786 493.654 184.479C493.654 121.172 442.513 69.8513 379.428 69.8513C316.344 69.8513 265.203 121.172 265.203 184.479C265.203 247.786 316.344 299.107 379.428 299.107Z" fill="#FF6584"/>
<path d="M935.178 614.551C935.178 885.021 774.952 979.459 577.303 979.459C379.655 979.459 219.429 885.021 219.429 614.551C219.429 344.081 577.303 0 577.303 0C577.303 0 935.178 344.081 935.178 614.551Z" fill="#F2F2F2"/>
<path d="M564.266 938.087L567.932 711.727L720.465 431.688L568.506 676.218L570.154 574.437L675.28 371.833L570.589 547.503L573.552 364.446L686.125 203.147L574.02 335.66L575.87 0L564.234 444.354L565.19 426.023L450.738 250.218L563.356 461.212L552.692 665.654L552.374 660.229L420.429 475.22L551.974 679.399L550.641 704.966L550.402 705.351L550.511 707.45L523.455 1226.14H559.604L563.941 958.225L695.161 754.546L564.266 938.087Z" fill="#3F3D56"/>
<path d="M2000 725.328C2000 946.721 1868.85 1024.02 1707.06 1024.02C1545.28 1024.02 1414.13 946.721 1414.13 725.328C1414.13 503.935 1707.06 222.289 1707.06 222.289C1707.06 222.289 2000 503.935 2000 725.328Z" fill="#F2F2F2"/>
<path d="M1696.39 990.156L1699.39 804.871L1824.25 575.646L1699.86 775.804L1701.21 692.493L1787.26 526.65L1701.57 670.445L1703.99 520.605L1796.14 388.574L1704.37 497.044L1705.89 222.288L1696.37 586.013L1697.15 571.009L1603.46 427.103L1695.65 599.813L1686.92 767.158L1686.66 762.717L1578.65 611.277L1686.33 778.408L1685.24 799.337L1685.04 799.652L1685.13 801.37L1662.99 1225.94H1692.57L1696.12 1006.64L1803.54 839.92L1696.39 990.156Z" fill="#3F3D56"/>
<path d="M989.82 1268.99C1536.48 1268.99 1979.64 1246.51 1979.64 1218.78C1979.64 1191.05 1536.48 1168.57 989.82 1168.57C443.158 1168.57 0 1191.05 0 1218.78C0 1246.51 443.158 1268.99 989.82 1268.99Z" fill="#3F3D56"/>
<path d="M1592.81 1310.34C1686.44 1310.34 1762.34 1306.48 1762.34 1301.74C1762.34 1296.99 1686.44 1293.14 1592.81 1293.14C1499.18 1293.14 1423.28 1296.99 1423.28 1301.74C1423.28 1306.48 1499.18 1310.34 1592.81 1310.34Z" fill="#3F3D56"/>
<path d="M979.339 1393.29C1072.97 1393.29 1148.87 1389.44 1148.87 1384.69C1148.87 1379.94 1072.97 1376.09 979.339 1376.09C885.708 1376.09 809.806 1379.94 809.806 1384.69C809.806 1389.44 885.708 1393.29 979.339 1393.29Z" fill="#3F3D56"/>
<path d="M513.914 1334.78C727.826 1334.78 901.235 1325.99 901.235 1315.14C901.235 1304.29 727.826 1295.49 513.914 1295.49C300.003 1295.49 126.594 1304.29 126.594 1315.14C126.594 1325.99 300.003 1334.78 513.914 1334.78Z" fill="#3F3D56"/>
<path d="M173.272 1155.72C251.143 1155.72 314.269 1092.37 314.269 1014.22C314.269 936.078 251.143 872.729 173.272 872.729C95.4018 872.729 32.2754 936.078 32.2754 1014.22C32.2754 1092.37 95.4018 1155.72 173.272 1155.72Z" fill="#2F2E41"/>
<path d="M150.553 1125.01L107.721 1124.5L106.817 1201.51L149.648 1202.02L150.553 1125.01Z" fill="#2F2E41"/>
<path d="M236.216 1126.02L193.384 1125.51L192.48 1202.52L235.312 1203.03L236.216 1126.02Z" fill="#2F2E41"/>
<path d="M178.192 1203.25C178.279 1195.83 162.37 1189.63 142.657 1189.4C122.944 1189.16 106.893 1194.99 106.806 1202.41C106.719 1209.82 122.629 1216.03 142.342 1216.26C162.054 1216.49 178.105 1210.67 178.192 1203.25Z" fill="#2F2E41"/>
<path d="M263.876 1202.47C263.963 1195.05 248.054 1188.85 228.341 1188.62C208.628 1188.39 192.578 1194.21 192.49 1201.63C192.403 1209.05 208.313 1215.25 228.026 1215.48C247.738 1215.72 263.789 1209.89 263.876 1202.47Z" fill="#2F2E41"/>
<path d="M177.262 1026.8C203.876 1026.8 225.451 1005.15 225.451 978.446C225.451 951.738 203.876 930.087 177.262 930.087C150.648 930.087 129.073 951.738 129.073 978.446C129.073 1005.15 150.648 1026.8 177.262 1026.8Z" fill="white"/>
<path d="M177.262 994.565C186.133 994.565 193.325 987.348 193.325 978.446C193.325 969.543 186.133 962.326 177.262 962.326C168.391 962.326 161.199 969.543 161.199 978.446C161.199 987.348 168.391 994.565 177.262 994.565Z" fill="#3F3D56"/>
<path d="M38.0549 881.029C27.2716 829.732 64.2689 778.465 120.691 766.52C177.112 754.576 231.593 786.478 242.376 837.775C253.16 889.072 215.643 907.501 159.222 919.445C102.8 931.39 48.8383 932.326 38.0549 881.029Z" fill="#3B86FF"/>
<path d="M388.352 1093.16C388.352 1191.8 329.919 1226.25 257.832 1226.25C256.162 1226.25 254.495 1226.23 252.83 1226.19C249.49 1226.12 246.182 1225.96 242.914 1225.73C177.856 1221.11 127.312 1184.9 127.312 1093.16C127.312 998.217 248.21 878.417 257.291 869.551L257.307 869.535C257.657 869.192 257.832 869.025 257.832 869.025C257.832 869.025 388.352 994.514 388.352 1093.16Z" fill="#3B86FF"/>
<path d="M253.076 1211.15L300.814 1144.22L252.957 1218.5L252.83 1226.19C249.49 1226.12 246.182 1225.96 242.913 1225.73L248.059 1127.04L248.019 1126.28L248.106 1126.13L248.591 1116.81L200.615 1042.34L248.742 1109.82L248.854 1111.8L252.742 1037.23L211.669 960.279L253.243 1024.14L257.291 869.551L257.307 869.025V869.535L256.631 991.442L297.522 943.113L256.464 1001.94L255.382 1068.71L293.561 1004.63L255.224 1078.53L254.619 1115.65L310.046 1026.47L254.412 1128.6L253.076 1211.15Z" fill="#3F3D56"/>
<path d="M1271.62 1154.19C1349.49 1154.19 1412.62 1090.84 1412.62 1012.69C1412.62 934.547 1349.49 871.198 1271.62 871.198C1193.75 871.198 1130.63 934.547 1130.63 1012.69C1130.63 1090.84 1193.75 1154.19 1271.62 1154.19Z" fill="#2F2E41"/>
<path d="M1283.66 1125.15L1242.71 1137.78L1265.26 1211.4L1306.2 1198.77L1283.66 1125.15Z" fill="#2F2E41"/>
<path d="M1365.54 1099.91L1324.6 1112.53L1347.14 1186.15L1388.09 1173.52L1365.54 1099.91Z" fill="#2F2E41"/>
<path d="M1303.57 1214.57C1322.42 1208.76 1335.93 1198.3 1333.76 1191.21C1331.59 1184.12 1314.55 1183.08 1295.71 1188.89C1276.86 1194.7 1263.35 1205.16 1265.52 1212.25C1267.69 1219.34 1284.73 1220.38 1303.57 1214.57Z" fill="#2F2E41"/>
<path d="M1384.94 1187.6C1403.78 1181.79 1417.3 1171.33 1415.12 1164.24C1412.95 1157.15 1395.92 1156.11 1377.07 1161.92C1358.23 1167.73 1344.71 1178.19 1346.88 1185.29C1349.06 1192.38 1366.09 1193.41 1384.94 1187.6Z" fill="#2F2E41"/>
<path d="M1264.55 1025.76C1291.16 1025.76 1312.74 1004.11 1312.74 977.399C1312.74 950.691 1291.16 929.04 1264.55 929.04C1237.93 929.04 1216.36 950.691 1216.36 977.399C1216.36 1004.11 1237.93 1025.76 1264.55 1025.76Z" fill="white"/>
<path d="M1264.55 993.518C1273.42 993.518 1280.61 986.301 1280.61 977.399C1280.61 968.496 1273.42 961.279 1264.55 961.279C1255.68 961.279 1248.49 968.496 1248.49 977.399C1248.49 986.301 1255.68 993.518 1264.55 993.518Z" fill="#3F3D56"/>
<path d="M1102.37 927.233C1076.51 881.681 1096.16 821.532 1146.26 792.887C1196.36 764.242 1257.94 777.949 1283.81 823.501C1309.67 869.053 1279.54 898.087 1229.44 926.732C1179.33 955.377 1128.23 972.785 1102.37 927.233Z" fill="#3B86FF"/>
<path d="M1020.16 1075.09C1020.16 1165.65 966.522 1197.26 900.349 1197.26C898.816 1197.26 897.286 1197.25 895.758 1197.21C892.692 1197.15 889.655 1197 886.655 1196.79C826.935 1192.55 780.538 1159.31 780.538 1075.09C780.538 987.943 891.517 877.972 899.853 869.834L899.867 869.819C900.189 869.504 900.349 869.35 900.349 869.35C900.349 869.35 1020.16 984.544 1020.16 1075.09Z" fill="#3B86FF"/>
<path d="M895.984 1183.41L939.805 1121.96L895.874 1190.16L895.758 1197.21C892.692 1197.15 889.655 1197 886.655 1196.79L891.378 1106.2L891.341 1105.5L891.422 1105.36L891.867 1096.81L847.827 1028.45L892.006 1090.39L892.108 1092.21L895.677 1023.76L857.974 953.117L896.137 1011.74L899.853 869.834L899.867 869.35V869.819L899.247 981.724L936.782 937.36L899.094 991.364L898.101 1052.65L933.147 993.833L897.955 1061.67L897.4 1095.74L948.28 1013.88L897.21 1107.63L895.984 1183.41Z" fill="#3F3D56"/>
<path d="M1491.34 1112.86C1491.34 1211.5 1432.91 1245.95 1360.82 1245.95C1359.15 1245.95 1357.48 1245.93 1355.82 1245.89C1352.48 1245.82 1349.17 1245.66 1345.9 1245.44C1280.84 1240.82 1230.3 1204.6 1230.3 1112.86C1230.3 1017.92 1351.2 898.119 1360.28 889.253L1360.3 889.237C1360.65 888.894 1360.82 888.726 1360.82 888.726C1360.82 888.726 1491.34 1014.22 1491.34 1112.86Z" fill="#3B86FF"/>
<path d="M1356.06 1230.86L1403.8 1163.92L1355.95 1238.21L1355.82 1245.89C1352.48 1245.82 1349.17 1245.66 1345.9 1245.44L1351.05 1146.74L1351.01 1145.98L1351.09 1145.83L1351.58 1136.51L1303.6 1062.04L1351.73 1129.52L1351.84 1131.5L1355.73 1056.93L1314.66 979.981L1356.23 1043.85L1360.28 889.253L1360.3 888.726V889.237L1359.62 1011.14L1400.51 962.815L1359.45 1021.65L1358.37 1088.41L1396.55 1024.33L1358.21 1098.23L1357.61 1135.35L1413.03 1046.17L1357.4 1148.3L1356.06 1230.86Z" fill="#3F3D56"/>
<path d="M1280.58 1097.39C1285.81 1086.31 1261.54 1063.75 1226.36 1047.01C1191.18 1030.27 1158.42 1025.68 1153.18 1036.76C1147.94 1047.84 1172.22 1070.4 1207.4 1087.14C1242.57 1103.89 1275.34 1108.48 1280.58 1097.39Z" fill="#2F2E41"/>
<path d="M195.392 1084.44C199.94 1073.06 174.329 1052.04 138.189 1037.51C102.048 1022.97 69.0644 1020.41 64.5169 1031.8C59.9694 1043.19 85.5804 1064.2 121.721 1078.74C157.861 1093.27 190.845 1095.83 195.392 1084.44Z" fill="#2F2E41"/>
</g>
<defs>
<clipPath id="clip0">
<rect width="2000" height="1393.29" fill="white"/>
</clipPath>
</defs>
</svg>
